0
SECTION
2
HEADER
9
$INSUNITS
70
4
0
ENDSEC
0
SECTION
2
ENTITIES
0
POLYLINE
8
PANEL_OUTLINE
66
1
70
1
0
VERTEX
8
PANEL_OUTLINE
10
0.000000
20
0.000000
30
0.0
0
VERTEX
8
PANEL_OUTLINE
10
1016.000000
20
0.000000
30
0.0
0
VERTEX
8
PANEL_OUTLINE
10
1016.000000
20
1016.000000
30
0.0
0
VERTEX
8
PANEL_OUTLINE
10
0.000000
20
1016.000000
30
0.0
0
SEQEND
0
POLYLINE
8
ARCHITECTURE
66
1
70
1
0
VERTEX
8
ARCHITECTURE
10
460.375000
20
0.000000
30
0.0
0
VERTEX
8
ARCHITECTURE
10
460.375000
20
503.447900
30
0.0
0
VERTEX
8
ARCHITECTURE
10
85.834800
20
1102.837500
30
0.0
0
VERTEX
8
ARCHITECTURE
10
112.760300
20
1119.662500
30
0.0
0
VERTEX
8
ARCHITECTURE
10
492.125000
20
512.552100
30
0.0
0
VERTEX
8
ARCHITECTURE
10
492.125000
20
0.000000
30
0.0
0
SEQEND
0
POLYLINE
8
ARCHITECTURE
66
1
70
1
0
VERTEX
8
ARCHITECTURE
10
523.875000
20
0.000000
30
0.0
0
VERTEX
8
ARCHITECTURE
10
523.875000
20
512.552100
30
0.0
0
VERTEX
8
ARCHITECTURE
10
903.239700
20
1119.662500
30
0.0
0
VERTEX
8
ARCHITECTURE
10
930.165200
20
1102.837500
30
0.0
0
VERTEX
8
ARCHITECTURE
10
555.625000
20
503.447900
30
0.0
0
VERTEX
8
ARCHITECTURE
10
555.625000
20
0.000000
30
0.0
0
SEQEND
0
ENDSEC
0
EOF
