0
SECTION
2
HEADER
9
$INSUNITS
70
4
0
ENDSEC
0
SECTION
2
ENTITIES
0
POLYLINE
8
PANEL_OUTLINE
66
1
70
1
0
VERTEX
8
PANEL_OUTLINE
10
0.000000
20
0.000000
30
0.0
0
VERTEX
8
PANEL_OUTLINE
10
406.400000
20
0.000000
30
0.0
0
VERTEX
8
PANEL_OUTLINE
10
406.400000
20
508.000000
30
0.0
0
VERTEX
8
PANEL_OUTLINE
10
0.000000
20
508.000000
30
0.0
0
SEQEND
0
POLYLINE
8
ARCHITECTURE
66
1
70
1
0
VERTEX
8
ARCHITECTURE
10
161.925000
20
0.000000
30
0.0
0
VERTEX
8
ARCHITECTURE
10
161.925000
20
251.268800
30
0.0
0
VERTEX
8
ARCHITECTURE
10
-31.055800
20
560.102500
30
0.0
0
VERTEX
8
ARCHITECTURE
10
-14.900400
20
570.197500
30
0.0
0
VERTEX
8
ARCHITECTURE
10
180.975000
20
256.731200
30
0.0
0
VERTEX
8
ARCHITECTURE
10
180.975000
20
0.000000
30
0.0
0
SEQEND
0
POLYLINE
8
ARCHITECTURE
66
1
70
1
0
VERTEX
8
ARCHITECTURE
10
225.425000
20
0.000000
30
0.0
0
VERTEX
8
ARCHITECTURE
10
225.425000
20
256.731200
30
0.0
0
VERTEX
8
ARCHITECTURE
10
421.300400
20
570.197500
30
0.0
0
VERTEX
8
ARCHITECTURE
10
437.455800
20
560.102500
30
0.0
0
VERTEX
8
ARCHITECTURE
10
244.475000
20
251.268800
30
0.0
0
VERTEX
8
ARCHITECTURE
10
244.475000
20
0.000000
30
0.0
0
SEQEND
0
ENDSEC
0
EOF
