0
SECTION
2
HEADER
9
$INSUNITS
70
4
0
ENDSEC
0
SECTION
2
ENTITIES
0
POLYLINE
8
PANEL_OUTLINE
66
1
70
1
0
VERTEX
8
PANEL_OUTLINE
10
0.000000
20
0.000000
30
0.0
0
VERTEX
8
PANEL_OUTLINE
10
914.400000
20
0.000000
30
0.0
0
VERTEX
8
PANEL_OUTLINE
10
914.400000
20
914.400000
30
0.0
0
VERTEX
8
PANEL_OUTLINE
10
0.000000
20
914.400000
30
0.0
0
SEQEND
0
POLYLINE
8
ARCHITECTURE
66
1
70
1
0
VERTEX
8
ARCHITECTURE
10
409.575000
20
0.000000
30
0.0
0
VERTEX
8
ARCHITECTURE
10
409.575000
20
452.647900
30
0.0
0
VERTEX
8
ARCHITECTURE
10
66.778200
20
1001.237500
30
0.0
0
VERTEX
8
ARCHITECTURE
10
93.703700
20
1018.062500
30
0.0
0
VERTEX
8
ARCHITECTURE
10
441.325000
20
461.752100
30
0.0
0
VERTEX
8
ARCHITECTURE
10
441.325000
20
0.000000
30
0.0
0
SEQEND
0
POLYLINE
8
ARCHITECTURE
66
1
70
1
0
VERTEX
8
ARCHITECTURE
10
473.075000
20
0.000000
30
0.0
0
VERTEX
8
ARCHITECTURE
10
473.075000
20
461.752100
30
0.0
0
VERTEX
8
ARCHITECTURE
10
820.696300
20
1018.062500
30
0.0
0
VERTEX
8
ARCHITECTURE
10
847.621800
20
1001.237500
30
0.0
0
VERTEX
8
ARCHITECTURE
10
504.825000
20
452.647900
30
0.0
0
VERTEX
8
ARCHITECTURE
10
504.825000
20
0.000000
30
0.0
0
SEQEND
0
ENDSEC
0
EOF
