0
SECTION
2
HEADER
9
$INSUNITS
70
4
0
ENDSEC
0
SECTION
2
ENTITIES
0
POLYLINE
8
PANEL_OUTLINE
66
1
70
1
0
VERTEX
8
PANEL_OUTLINE
10
0.000000
20
0.000000
30
0.0
0
VERTEX
8
PANEL_OUTLINE
10
457.200000
20
0.000000
30
0.0
0
VERTEX
8
PANEL_OUTLINE
10
457.200000
20
609.600000
30
0.0
0
VERTEX
8
PANEL_OUTLINE
10
0.000000
20
609.600000
30
0.0
0
SEQEND
0
POLYLINE
8
ARCHITECTURE
66
1
70
1
0
VERTEX
8
ARCHITECTURE
10
187.325000
20
0.000000
30
0.0
0
VERTEX
8
ARCHITECTURE
10
187.325000
20
302.068800
30
0.0
0
VERTEX
8
ARCHITECTURE
10
-37.399100
20
661.702500
30
0.0
0
VERTEX
8
ARCHITECTURE
10
-21.243800
20
671.797500
30
0.0
0
VERTEX
8
ARCHITECTURE
10
206.375000
20
307.531200
30
0.0
0
VERTEX
8
ARCHITECTURE
10
206.375000
20
0.000000
30
0.0
0
SEQEND
0
POLYLINE
8
ARCHITECTURE
66
1
70
1
0
VERTEX
8
ARCHITECTURE
10
250.825000
20
0.000000
30
0.0
0
VERTEX
8
ARCHITECTURE
10
250.825000
20
307.531200
30
0.0
0
VERTEX
8
ARCHITECTURE
10
478.443800
20
671.797500
30
0.0
0
VERTEX
8
ARCHITECTURE
10
494.599100
20
661.702500
30
0.0
0
VERTEX
8
ARCHITECTURE
10
269.875000
20
302.068800
30
0.0
0
VERTEX
8
ARCHITECTURE
10
269.875000
20
0.000000
30
0.0
0
SEQEND
0
ENDSEC
0
EOF
